<?xml version="1.0" encoding="utf-8"?>
<!-- Generator: Adobe Illustrator 17.1.0, SVG Export Plug-In . SVG Version: 6.00 Build 0)  -->
<!DOCTYPE svg PUBLIC "-//W3C//DTD SVG 1.1//EN" "http://www.w3.org/Graphics/SVG/1.1/DTD/svg11.dtd">
<svg version="1.1" id="Layer_1" xmlns="http://www.w3.org/2000/svg" xmlns:xlink="http://www.w3.org/1999/xlink" x="0px" y="0px"
	 viewBox="596 36 684 732" enable-background="new 596 36 684 732" xml:space="preserve">
<text transform="matrix(1 0 0 1 993.3563 343.1178)" font-family="'Ubuntu'" font-size="14.1202">Petri Net</text>
<text transform="matrix(1 0 0 1 616.5006 719.1413)" font-family="'Ubuntu'" font-size="14.1202">Automatic layout</text>
<g>
	<rect x="989" y="255.8" fill="none" stroke="#000000" stroke-width="2" stroke-miterlimit="10" width="66" height="70"/>
	<g>
		<line fill="none" stroke="#000000" stroke-width="2" stroke-miterlimit="10" x1="1001" y1="272.8" x2="1046" y2="272.8"/>
		<line fill="none" stroke="#000000" stroke-width="2" stroke-miterlimit="10" x1="1001" y1="281.8" x2="1046" y2="281.8"/>
		<line fill="none" stroke="#000000" stroke-width="2" stroke-miterlimit="10" x1="1001" y1="290.8" x2="1046" y2="290.8"/>
		<line fill="none" stroke="#000000" stroke-width="2" stroke-miterlimit="10" x1="1001" y1="299.8" x2="1046" y2="299.8"/>
		<line fill="none" stroke="#000000" stroke-width="2" stroke-miterlimit="10" x1="1001" y1="308.8" x2="1046" y2="308.8"/>
	</g>
</g>
<text transform="matrix(1 0 0 1 810.3074 476.2185)" font-family="'Ubuntu'" font-size="14.1202">Directed graph</text>
<g>
	<rect x="824.8" y="387.9" fill="none" stroke="#000000" stroke-width="2" stroke-miterlimit="10" width="66" height="70"/>
	<g>
		<line fill="none" stroke="#000000" stroke-width="2" stroke-miterlimit="10" x1="836.8" y1="404.9" x2="881.8" y2="404.9"/>
		<line fill="none" stroke="#000000" stroke-width="2" stroke-miterlimit="10" x1="836.8" y1="413.9" x2="881.8" y2="413.9"/>
		<line fill="none" stroke="#000000" stroke-width="2" stroke-miterlimit="10" x1="836.8" y1="422.9" x2="881.8" y2="422.9"/>
		<line fill="none" stroke="#000000" stroke-width="2" stroke-miterlimit="10" x1="836.8" y1="431.9" x2="881.8" y2="431.9"/>
		<line fill="none" stroke="#000000" stroke-width="2" stroke-miterlimit="10" x1="836.8" y1="440.9" x2="881.8" y2="440.9"/>
	</g>
</g>
<text transform="matrix(1 0 0 1 811.955 137.0131)" font-family="'Ubuntu'" font-size="14.1202">Mathematical</text>
<text transform="matrix(1 0 0 1 835.613 153.9572)" font-family="'Ubuntu'" font-size="14.1202">model</text>
<g>
	<rect x="822.4" y="48.7" fill="none" stroke="#000000" stroke-width="2" stroke-miterlimit="10" width="66" height="70"/>
	<g>
		<line fill="none" stroke="#000000" stroke-width="2" stroke-miterlimit="10" x1="834.4" y1="65.7" x2="879.4" y2="65.7"/>
		<line fill="none" stroke="#000000" stroke-width="2" stroke-miterlimit="10" x1="834.4" y1="74.7" x2="879.4" y2="74.7"/>
		<line fill="none" stroke="#000000" stroke-width="2" stroke-miterlimit="10" x1="834.4" y1="83.7" x2="879.4" y2="83.7"/>
		<line fill="none" stroke="#000000" stroke-width="2" stroke-miterlimit="10" x1="834.4" y1="92.7" x2="879.4" y2="92.7"/>
		<line fill="none" stroke="#000000" stroke-width="2" stroke-miterlimit="10" x1="834.4" y1="101.7" x2="879.4" y2="101.7"/>
	</g>
</g>
<text transform="matrix(1 0 0 1 615.3273 343.6882)" font-family="'Ubuntu'" font-size="14.1202">Simulation data</text>
<g>
	<rect x="632.5" y="256" fill="none" stroke="#000000" stroke-width="2" stroke-miterlimit="10" width="66" height="70"/>
	<g>
		<line fill="none" stroke="#000000" stroke-width="2" stroke-miterlimit="10" x1="644.5" y1="273" x2="689.5" y2="273"/>
		<line fill="none" stroke="#000000" stroke-width="2" stroke-miterlimit="10" x1="644.5" y1="282" x2="689.5" y2="282"/>
		<line fill="none" stroke="#000000" stroke-width="2" stroke-miterlimit="10" x1="644.5" y1="291" x2="689.5" y2="291"/>
		<line fill="none" stroke="#000000" stroke-width="2" stroke-miterlimit="10" x1="644.5" y1="300" x2="689.5" y2="300"/>
		<line fill="none" stroke="#000000" stroke-width="2" stroke-miterlimit="10" x1="644.5" y1="309" x2="689.5" y2="309"/>
	</g>
</g>
<text transform="matrix(1 0 0 1 780.7531 732.6691)" font-family="'Ubuntu'" font-size="14.1202">Annotated(with layout)</text>
<text transform="matrix(1 0 0 1 808.8301 749.6138)" font-family="'Ubuntu'" font-size="14.1202">dynamic graph</text>
<g>
	<rect x="822.7" y="644.4" fill="none" stroke="#000000" stroke-width="2" stroke-miterlimit="10" width="66" height="70"/>
	<g>
		<line fill="none" stroke="#000000" stroke-width="2" stroke-miterlimit="10" x1="834.7" y1="661.4" x2="879.7" y2="661.4"/>
		<line fill="none" stroke="#000000" stroke-width="2" stroke-miterlimit="10" x1="834.7" y1="670.4" x2="879.7" y2="670.4"/>
		<line fill="none" stroke="#000000" stroke-width="2" stroke-miterlimit="10" x1="834.7" y1="679.4" x2="879.7" y2="679.4"/>
		<line fill="none" stroke="#000000" stroke-width="2" stroke-miterlimit="10" x1="834.7" y1="688.4" x2="879.7" y2="688.4"/>
		<line fill="none" stroke="#000000" stroke-width="2" stroke-miterlimit="10" x1="834.7" y1="697.4" x2="879.7" y2="697.4"/>
	</g>
</g>
<g>
	<text transform="matrix(1 0 0 1 1179.8 729.1412)" font-family="'Ubuntu'" font-size="14.1202">Output</text>
	<g>
		<rect x="1169.6" y="640.9" fill="none" stroke="#000000" stroke-width="2" stroke-miterlimit="10" width="66" height="70"/>
		<g>
			<line fill="none" stroke="#000000" stroke-width="2" stroke-miterlimit="10" x1="1181.6" y1="657.9" x2="1226.6" y2="657.9"/>
			<line fill="none" stroke="#000000" stroke-width="2" stroke-miterlimit="10" x1="1181.6" y1="666.9" x2="1226.6" y2="666.9"/>
			<line fill="none" stroke="#000000" stroke-width="2" stroke-miterlimit="10" x1="1181.6" y1="675.9" x2="1226.6" y2="675.9"/>
			<line fill="none" stroke="#000000" stroke-width="2" stroke-miterlimit="10" x1="1181.6" y1="684.9" x2="1226.6" y2="684.9"/>
			<line fill="none" stroke="#000000" stroke-width="2" stroke-miterlimit="10" x1="1181.6" y1="693.9" x2="1226.6" y2="693.9"/>
		</g>
	</g>
</g>
<text transform="matrix(1 0 0 1 639.0961 199.3958)" font-family="'Ubuntu'" font-size="14.1202">simulation</text>
<polygon fill="none" stroke="#000000" stroke-width="4" stroke-miterlimit="10" points="718.9,164.2 684.7,145.1 626.4,145.1 
	626.4,184.1 684.7,184.1 "/>
<text transform="matrix(1 0 0 1 979.0001 207.0373)" font-family="'Ubuntu'" font-size="14.1202">transformation</text>
<text transform="matrix(1 0 0 1 984.0551 223.9814)" font-family="'Ubuntu'" font-size="14.1202">into Petri Net</text>
<polygon fill="none" stroke="#000000" stroke-width="4" stroke-miterlimit="10" points="1073.2,171.8 1039.1,152.8 980.7,152.8 
	980.7,191.8 1039.1,191.8 "/>
<text transform="matrix(1 0 0 1 623.9456 459.6475)" enable-background="new    "><tspan x="0" y="0" font-family="'Ubuntu'" font-size="14.1202">transformation</tspan><tspan x="-12.7" y="16.9" font-family="'Ubuntu'" font-size="14.1202">into dynamic graph</tspan></text>
<polygon fill="none" stroke="#000000" stroke-width="4" stroke-miterlimit="10" points="718.9,423.6 684.7,404.5 626.4,404.5 
	626.4,443.5 684.7,443.5 "/>
<text transform="matrix(1 0 0 1 983.4348 448.9879)" font-family="'Ubuntu'" font-size="14.1202">transformations</text>
<polygon fill="none" stroke="#000000" stroke-width="4" stroke-miterlimit="10" points="1081.5,414.9 1047.4,395.8 989,395.8 
	989,434.8 1047.4,434.8 "/>
<polygon fill="none" stroke="#000000" stroke-width="4" stroke-miterlimit="10" points="717.3,683.9 683.2,664.9 624.9,664.9 
	624.9,703.9 683.2,703.9 "/>
<g>
	<line fill="none" x1="732" y1="685.4" x2="808" y2="685.4"/>
	<g>
		<line fill="none" stroke="#000000" stroke-miterlimit="10" x1="732" y1="684.9" x2="806" y2="684.9"/>
		<g>
			<polygon points="803.3,687.4 805.8,684.9 803.3,682.4 805.5,682.4 808,684.9 805.5,687.4 			"/>
		</g>
	</g>
</g>
<g>
	<line fill="none" x1="1083.6" y1="682.9" x2="1159.6" y2="682.9"/>
	<g>
		<line fill="none" stroke="#000000" stroke-miterlimit="10" x1="1083.6" y1="682.4" x2="1157.6" y2="682.4"/>
		<g>
			<polygon points="1154.9,684.9 1157.5,682.4 1154.9,679.9 1157.1,679.9 1159.6,682.4 1157.1,684.9 			"/>
		</g>
	</g>
</g>
<g>
	<line fill="none" x1="899" y1="685.4" x2="975" y2="685.4"/>
	<g>
		<line fill="none" stroke="#000000" stroke-miterlimit="10" x1="899" y1="684.9" x2="973" y2="684.9"/>
		<g>
			<polygon points="970.3,687.4 972.8,684.9 970.3,682.4 972.5,682.4 975,684.9 972.5,687.4 			"/>
		</g>
	</g>
</g>
<text transform="matrix(1 0 0 1 616.1095 615.7837)" font-family="'Ubuntu'" font-size="14.1202">dynamic graph</text>
<g>
	<rect x="629.9" y="527.5" fill="none" stroke="#000000" stroke-width="2" stroke-miterlimit="10" width="66" height="70"/>
	<g>
		<line fill="none" stroke="#000000" stroke-width="2" stroke-miterlimit="10" x1="641.9" y1="544.5" x2="686.9" y2="544.5"/>
		<line fill="none" stroke="#000000" stroke-width="2" stroke-miterlimit="10" x1="641.9" y1="553.5" x2="686.9" y2="553.5"/>
		<line fill="none" stroke="#000000" stroke-width="2" stroke-miterlimit="10" x1="641.9" y1="562.5" x2="686.9" y2="562.5"/>
		<line fill="none" stroke="#000000" stroke-width="2" stroke-miterlimit="10" x1="641.9" y1="571.5" x2="686.9" y2="571.5"/>
		<line fill="none" stroke="#000000" stroke-width="2" stroke-miterlimit="10" x1="641.9" y1="580.5" x2="686.9" y2="580.5"/>
	</g>
</g>
<text transform="matrix(1 0 0 1 965.235 615.9253)" font-family="'Ubuntu'" font-size="14.1202">Regulation motifs</text>
<g>
	<rect x="989" y="527.6" fill="none" stroke="#000000" stroke-width="2" stroke-miterlimit="10" width="66" height="70"/>
	<g>
		<line fill="none" stroke="#000000" stroke-width="2" stroke-miterlimit="10" x1="1001" y1="544.6" x2="1046" y2="544.6"/>
		<line fill="none" stroke="#000000" stroke-width="2" stroke-miterlimit="10" x1="1001" y1="553.6" x2="1046" y2="553.6"/>
		<line fill="none" stroke="#000000" stroke-width="2" stroke-miterlimit="10" x1="1001" y1="562.6" x2="1046" y2="562.6"/>
		<line fill="none" stroke="#000000" stroke-width="2" stroke-miterlimit="10" x1="1001" y1="571.6" x2="1046" y2="571.6"/>
		<line fill="none" stroke="#000000" stroke-width="2" stroke-miterlimit="10" x1="1001" y1="580.6" x2="1046" y2="580.6"/>
	</g>
</g>
<text transform="matrix(1 0 0 1 793.4329 589.9253)" font-family="'Ubuntu'" font-size="14.1202">Regulation motifs</text>
<text transform="matrix(1 0 0 1 819.7659 606.8693)" font-family="'Ubuntu'" font-size="14.1202">detection</text>
<polygon fill="none" stroke="#000000" stroke-width="4" stroke-miterlimit="10" points="896.3,554.7 862.2,535.6 804,535.6 
	804,574.6 862.2,574.6 "/>
<g>
	<line fill="none" x1="900" y1="557.6" x2="976" y2="557.6"/>
	<g>
		<line fill="none" stroke="#000000" stroke-miterlimit="10" x1="900" y1="557.1" x2="974" y2="557.1"/>
		<g>
			<polygon points="971.3,559.6 973.8,557.1 971.3,554.6 973.5,554.6 976,557.1 973.5,559.6 			"/>
		</g>
	</g>
</g>
<g>
	<line fill="none" x1="984.1" y1="422.4" x2="908.1" y2="422.4"/>
	<g>
		<line fill="none" stroke="#000000" stroke-miterlimit="10" x1="984.1" y1="422.9" x2="910.1" y2="422.9"/>
		<g>
			<polygon points="912.8,420.4 910.2,422.9 912.8,425.4 910.6,425.4 908.1,422.9 910.6,420.4 			"/>
		</g>
	</g>
</g>
<g>
	<line fill="none" x1="665" y1="319.9" x2="665" y2="395.9"/>
	<g>
		<line fill="none" stroke="#000000" stroke-miterlimit="10" x1="665.5" y1="347.1" x2="665.5" y2="393.9"/>
		<g>
			<polygon points="663,391.2 665.5,393.7 668,391.2 668,393.3 665.5,395.9 663,393.3 			"/>
		</g>
	</g>
</g>
<g>
	<line fill="none" x1="665" y1="209" x2="665" y2="251.5"/>
	<g>
		<line fill="none" stroke="#000000" stroke-miterlimit="10" x1="665.5" y1="202.6" x2="665.5" y2="249.5"/>
		<g>
			<polygon points="663,246.8 665.5,249.3 668,246.8 668,248.9 665.5,251.5 663,248.9 			"/>
		</g>
	</g>
</g>
<g>
	<line fill="none" x1="663.5" y1="97" x2="663.5" y2="139.4"/>
	<g>
		<path fill="none" stroke="#000000" stroke-miterlimit="10" d="M815.8,71.4c0,0-95,0-129.5,0c-22.6,0-22.3,19.2-22.3,19.2v46.8"/>
		<g>
			<polygon points="661.5,134.7 664,137.3 666.5,134.7 666.5,136.9 664,139.4 661.5,136.9 			"/>
		</g>
	</g>
</g>
<g>
	<line fill="none" x1="1021" y1="138.4" x2="1021" y2="96"/>
	<g>
		<path fill="none" stroke="#000000" stroke-miterlimit="10" d="M1020.5,136.4V89.6c0,0,0.3-19.2-22.3-19.2c-34.5,0-98.2,0-98.2,0"
			/>
		<g>
			<polygon points="1023,135.9 1020.5,138.4 1018,135.9 1018,133.7 1020.5,136.3 1023,133.7 			"/>
		</g>
	</g>
</g>
<g>
	<line fill="none" x1="1026" y1="231.8" x2="1026" y2="251.5"/>
	<g>
		<line fill="none" stroke="#000000" stroke-miterlimit="10" x1="1026.5" y1="228.2" x2="1026.5" y2="249.5"/>
		<g>
			<polygon points="1024,246.8 1026.5,249.3 1029,246.8 1029,248.9 1026.5,251.5 1024,248.9 			"/>
		</g>
	</g>
</g>
<g>
	<line fill="none" x1="656.9" y1="618.8" x2="656.9" y2="662.3"/>
	<g>
		<line fill="none" stroke="#000000" stroke-miterlimit="10" x1="657.4" y1="618.8" x2="657.4" y2="660.3"/>
		<g>
			<polygon points="654.9,657.6 657.4,660.1 659.9,657.6 659.9,659.7 657.4,662.3 654.9,659.7 			"/>
		</g>
	</g>
</g>
<g>
	<line fill="none" x1="1026.5" y1="619.1" x2="1026.5" y2="662.6"/>
	<g>
		<line fill="none" stroke="#000000" stroke-miterlimit="10" x1="1027" y1="619.1" x2="1027" y2="660.6"/>
		<g>
			<polygon points="1024.5,657.9 1027,660.5 1029.5,657.9 1029.5,660.1 1027,662.6 1024.5,660.1 			"/>
		</g>
	</g>
</g>
<g>
	<line fill="none" x1="656.9" y1="480.8" x2="656.9" y2="524.3"/>
	<g>
		<line fill="none" stroke="#000000" stroke-miterlimit="10" x1="657.4" y1="480.8" x2="657.4" y2="522.3"/>
		<g>
			<polygon points="654.9,519.6 657.4,522.1 659.9,519.6 659.9,521.7 657.4,524.3 654.9,521.7 			"/>
		</g>
	</g>
</g>
<g>
	<line fill="none" x1="1024" y1="347" x2="1024" y2="391"/>
	<g>
		<line fill="none" stroke="#000000" stroke-miterlimit="10" x1="1024.5" y1="347" x2="1024.5" y2="389"/>
		<g>
			<polygon points="1022,386.3 1024.5,388.9 1027,386.3 1027,388.5 1024.5,391 1022,388.5 			"/>
		</g>
	</g>
</g>
<g>
	<line fill="none" x1="807" y1="423.5" x2="731" y2="423.5"/>
	<g>
		<line fill="none" stroke="#000000" stroke-miterlimit="10" x1="807" y1="424" x2="733" y2="424"/>
		<g>
			<polygon points="735.7,421.5 733.2,424 735.7,426.5 733.5,426.5 731,424 733.5,421.5 			"/>
		</g>
	</g>
</g>
<g>
	<line fill="none" x1="708" y1="555.6" x2="784" y2="555.6"/>
	<g>
		<line fill="none" stroke="#000000" stroke-miterlimit="10" x1="708" y1="555.1" x2="782" y2="555.1"/>
		<g>
			<polygon points="779.3,557.6 781.9,555.1 779.3,552.6 781.5,552.6 784,555.1 781.5,557.6 			"/>
		</g>
	</g>
</g>
<g>
	<path d="M1066.3,686h-46.7c-4.8,0-8.7,3.9-8.7,8.7v9.7c0,4.8,3.9,8.7,8.7,8.7h46.7c4.8,0,8.7-3.9,8.7-8.7v-9.7
		C1075,689.9,1071.1,686,1066.3,686z M1072,694.7v9.6c0,3.1-2.6,5.7-5.7,5.7h-46.6c-3.1,0-5.7-2.6-5.7-5.7v-9.6
		c0-3.1,2.6-5.7,5.7-5.7h46.6C1069.4,689,1072,691.6,1072,694.7z"/>
	<path d="M987,689.5v-11c0-3.1,3.1-4.5,6.2-4.5h47.4c3.1,0,4.4,1.3,4.4,4.5v6.5h3v-6.5c0-4.8-2.6-7.5-7.4-7.5h-47.4
		c-4.6,0-9.2,2.6-9.2,7.5v11c0,4.9,4.5,9.5,9.2,9.5h16.8v-3h-16.8C990.1,696,987,692.7,987,689.5z"/>
	<path d="M1045.3,690.9c-0.2,2.4-2.6,5.1-5.7,5.1H1015v3h24.6c4.6,0,8.3-3.4,8.6-7.9l0.1-1.1h-2.9L1045.3,690.9z"/>
</g>
</svg>
