<?xml version="1.0" encoding="utf-8"?>
<!-- Generator: Adobe Illustrator 17.1.0, SVG Export Plug-In . SVG Version: 6.00 Build 0)  -->
<!DOCTYPE svg PUBLIC "-//W3C//DTD SVG 1.1//EN" "http://www.w3.org/Graphics/SVG/1.1/DTD/svg11.dtd">
<svg version="1.1" id="Layer_1" xmlns="http://www.w3.org/2000/svg" xmlns:xlink="http://www.w3.org/1999/xlink" x="0px" y="0px"
	 viewBox="0 0 700 393" enable-background="new 0 0 700 393" xml:space="preserve">
<line fill="none" stroke="#000000" stroke-miterlimit="10" x1="441.2" y1="107.1" x2="441.2" y2="68.7"/>
<text transform="matrix(1 0 0 1 424.3377 45.7274)" font-family="'MyriadPro-Regular'" font-size="13.162">Graph</text>
<text transform="matrix(1 0 0 1 401.462 56.6957)" font-family="'MyriadPro-Regular'" font-size="13.162">&lt;&lt;interface&gt;&gt;</text>
<text transform="matrix(1 0 0 1 420.0852 134.2969)" font-family="'MyriadPro-Regular'" font-size="13.162">PetriNet</text>
<text transform="matrix(1 0 0 1 402.7112 145.2655)" font-family="'MyriadPro-Regular'" font-size="13.162">&lt;&lt;interface&gt;&gt;</text>
<text transform="matrix(1 0 0 1 187.1797 248.7242)" font-family="'MyriadPro-Regular'" font-size="13.162">Mutation</text>
<text transform="matrix(1 0 0 1 172.576 259.693)" font-family="'MyriadPro-Regular'" font-size="13.162">&lt;&lt;interface&gt;&gt;</text>
<text transform="matrix(1 0 0 1 49.8777 254.7571)" font-family="'MyriadPro-Regular'" font-size="13.162">PInvariant</text>
<text transform="matrix(1 0 0 1 36.0054 304.7571)" font-family="'MyriadPro-Regular'" font-size="13.162">MotifDetection</text>
<text transform="matrix(1 0 0 1 30.6682 202.7571)" font-family="'MyriadPro-Regular'" font-size="13.162">MichaelisMenten</text>
<text transform="matrix(1 0 0 1 245.7011 139.7812)" font-family="'MyriadPro-Regular'" font-size="13.162">SimplePetriNet</text>
<text transform="matrix(1 0 0 1 546.9326 139.507)" font-family="'MyriadPro-Regular'" font-size="13.162">PetriNetImporter</text>
<text transform="matrix(1 0 0 1 320.6219 332.6324)" font-family="'MyriadPro-Regular'" font-size="13.162">WebSocketServer</text>
<rect x="397.4" y="27.6" fill="none" stroke="#000000" stroke-miterlimit="10" width="88.8" height="40.6"/>
<rect x="28.8" y="280.6" fill="none" stroke="#000000" stroke-miterlimit="10" width="97.6" height="40.6"/>
<rect x="168.7" y="230.6" fill="none" stroke="#000000" stroke-miterlimit="10" width="88.8" height="40.6"/>
<rect x="28.8" y="230.6" fill="none" stroke="#000000" stroke-miterlimit="10" width="97.6" height="40.6"/>
<rect x="28.8" y="178.6" fill="none" stroke="#000000" stroke-miterlimit="10" width="97.6" height="40.6"/>
<rect x="540.4" y="115.3" fill="none" stroke="#000000" stroke-miterlimit="10" width="106.4" height="40.6"/>
<text transform="matrix(1 0 0 1 357.2729 254.7565)" font-family="'MyriadPro-Regular'" font-size="13.162">App</text>
<rect x="315.5" y="230.6" fill="none" stroke="#000000" stroke-miterlimit="10" width="106.6" height="40.6"/>
<rect x="242.6" y="115.3" fill="none" stroke="#000000" stroke-miterlimit="10" width="88.8" height="40.6"/>
<rect x="397.4" y="115.3" fill="none" stroke="#000000" stroke-miterlimit="10" width="88.8" height="40.6"/>
<rect x="315.7" y="308.4" fill="none" stroke="#000000" stroke-miterlimit="10" width="106.4" height="40.6"/>
<text transform="matrix(1 0 0 1 600.6834 254.7563)" font-family="'MyriadPro-Regular'" font-size="13.162">GraphRenderer</text>
<rect x="598.3" y="230.6" fill="none" stroke="#000000" stroke-miterlimit="10" width="88.8" height="40.6"/>
<g>
	<polyline fill="none" stroke="#000000" stroke-miterlimit="10" stroke-dasharray="2,2" points="126.4,304.6 145.6,304.6 
		145.6,254.8 	"/>
</g>
<g>
	<polyline fill="none" stroke="#000000" stroke-miterlimit="10" stroke-dasharray="2,2" points="126.4,204.9 145.6,204.9 
		145.6,254.8 	"/>
</g>
<line fill="none" stroke="#000000" stroke-miterlimit="10" stroke-dasharray="2,2" x1="126.4" y1="254.8" x2="163.5" y2="254.8"/>
<line fill="none" stroke="#000000" stroke-miterlimit="10" x1="257.6" y1="250.9" x2="300.3" y2="250.9"/>
<line fill="none" stroke="#000000" stroke-miterlimit="10" x1="369.1" y1="308.4" x2="369.1" y2="286.6"/>
<line fill="none" stroke="#000000" stroke-miterlimit="10" x1="422.1" y1="328.7" x2="459.7" y2="328.7"/>
<line fill="none" stroke="#000000" stroke-miterlimit="10" x1="598.3" y1="250.3" x2="573.3" y2="250.3"/>
<polygon fill="#FFFFFF" stroke="#000000" stroke-miterlimit="10" points="307.7,256.9 300.3,250.9 307.7,244.9 315.1,250.9 "/>
<polygon fill="#FFFFFF" stroke="#000000" stroke-miterlimit="10" points="447.7,107.9 441.7,115.3 435.6,107.9 441.7,100.5 "/>
<polygon fill="#FFFFFF" stroke="#000000" stroke-miterlimit="10" points="375.1,279.2 369.1,286.6 363.1,279.2 369.1,271.8 "/>
<polygon fill="#FFFFFF" stroke="#000000" stroke-miterlimit="10" points="362.8,222.4 368.8,215 374.8,222.4 368.8,229.9 "/>
<polyline fill="none" stroke="#000000" stroke-miterlimit="10" points="368.8,215 368.8,193.2 442.6,193.2 442.6,155.9 442.6,193.2 
	512.8,193.2 512.8,215 "/>
<polygon fill="#FFFFFF" stroke="#000000" stroke-miterlimit="10" points="506.8,222.4 512.8,215 518.8,222.4 512.8,229.9 "/>
<text transform="matrix(1 0 0 1 465.8919 332.6324)" font-family="'MyriadPro-Regular'" font-size="13.162">WebSocketClient</text>
<text transform="matrix(1 0 0 1 488.6641 254.7565)" font-family="'MyriadPro-Regular'" font-size="13.162">WebApp</text>
<rect x="459.5" y="230.6" fill="none" stroke="#000000" stroke-miterlimit="10" width="106.6" height="40.6"/>
<rect x="459.7" y="308.4" fill="none" stroke="#000000" stroke-miterlimit="10" width="106.4" height="40.6"/>
<line fill="none" stroke="#000000" stroke-miterlimit="10" x1="513.1" y1="308.4" x2="513.1" y2="286.6"/>
<polygon fill="#FFFFFF" stroke="#000000" stroke-miterlimit="10" points="519.1,279.2 513.1,286.6 507.1,279.2 513.1,271.8 "/>
<polygon fill="#FFFFFF" stroke="#000000" stroke-miterlimit="10" points="573.6,244.2 581,250.2 573.6,256.2 566.2,250.2 "/>
<g>
	<line fill="none" stroke="#000000" stroke-miterlimit="10" x1="49.5" y1="107.4" x2="103.2" y2="107.4"/>
	<text transform="matrix(1 0 0 1 49.4761 116.2278)" font-family="'MyriadPro-Regular'" font-size="8">association</text>
</g>
<g>
	<g>
		<line fill="none" stroke="#000000" stroke-miterlimit="10" stroke-dasharray="2,2" x1="50.6" y1="53.9" x2="103.8" y2="53.9"/>
		<g>
			<polygon points="100.6,58.4 99.8,57.6 103.8,53.9 99.8,50.2 100.6,49.4 105.4,53.9 			"/>
		</g>
	</g>
	<text transform="matrix(1 0 0 1 49.4505 66.0436)" font-family="'MyriadPro-Regular'" font-size="8">dependency</text>
</g>
<g>
	<g>
		<line fill="none" stroke="#000000" stroke-miterlimit="10" x1="49.5" y1="26.7" x2="89.7" y2="26.7"/>
		<polygon fill="none" stroke="#000000" stroke-miterlimit="10" points="97.1,20.7 104.5,26.7 97.1,32.7 89.7,26.7 		"/>
	</g>
	<text transform="matrix(1 0 0 1 50.5595 39.1686)" font-family="'MyriadPro-Regular'" font-size="8">composition</text>
</g>
<g>
	<text transform="matrix(1 0 0 1 49.4504 92.1762)" font-family="'MyriadPro-Regular'" font-size="8">realization</text>
	<g>
		<g>
			<g>
				<line fill="none" stroke="#000000" stroke-miterlimit="10" stroke-dasharray="2,2" x1="49.7" y1="81.7" x2="99.2" y2="81.7"/>
			</g>
		</g>
		<polygon fill="none" stroke="#000000" stroke-miterlimit="10" points="104.4,81.4 101.9,83.5 99.5,85.5 99.5,81.4 99.5,77.4 
			101.9,79.4 		"/>
	</g>
</g>
<g>
	<g>
		<g>
			
				<line fill="none" stroke="#000000" stroke-miterlimit="10" stroke-dasharray="2,2" x1="331.5" y1="134.7" x2="392.2" y2="134.7"/>
		</g>
	</g>
	<polygon fill="none" stroke="#000000" stroke-miterlimit="10" points="397.4,134.4 394.9,136.5 392.5,138.5 392.5,134.4 
		392.5,130.4 394.9,132.4 	"/>
</g>
<line fill="none" stroke="#000000" stroke-miterlimit="10" x1="486.2" y1="135.6" x2="540.4" y2="135.6"/>
<polygon fill="none" stroke="#000000" stroke-miterlimit="10" points="168.4,254.4 165.9,256.5 163.5,258.5 163.5,254.4 
	163.5,250.4 165.9,252.4 "/>
<text transform="matrix(1 0 0 1 309.4262 374.3333)" font-family="'MyriadPro-Regular'" font-size="9">Communication channel</text>
<polyline fill="none" stroke="#000000" stroke-linejoin="round" stroke-miterlimit="10" points="306.7,377 403.1,377 440.9,347.2 
	440.9,334.5 "/>
<polygon stroke="#000000" stroke-linejoin="round" stroke-miterlimit="10" points="440.9,330 443,332.2 445,334.5 440.9,334.5 
	436.9,334.5 438.9,332.2 "/>
</svg>
