<?xml version="1.0" encoding="utf-8"?>
<!-- Generator: Adobe Illustrator 17.1.0, SVG Export Plug-In . SVG Version: 6.00 Build 0)  -->
<!DOCTYPE svg PUBLIC "-//W3C//DTD SVG 1.1//EN" "http://www.w3.org/Graphics/SVG/1.1/DTD/svg11.dtd">
<svg version="1.1" id="Layer_1" xmlns="http://www.w3.org/2000/svg" xmlns:xlink="http://www.w3.org/1999/xlink" x="0px" y="0px"
	 viewBox="0 0 792 612" enable-background="new 0 0 792 612" xml:space="preserve">
<text transform="matrix(1 0 0 1 217.4043 330.9629)" font-family="'MyriadPro-Regular'" font-size="18.937">Graph</text>
<text transform="matrix(1 0 0 1 184.4915 346.7441)" font-family="'MyriadPro-Regular'" font-size="18.937">&lt;&lt;interface&gt;&gt;</text>
<text transform="matrix(1 0 0 1 364.0127 331.4893)" font-family="'MyriadPro-Regular'" font-size="18.937">TransactionGraph</text>
<text transform="matrix(1 0 0 1 377.0684 347.2696)" font-family="'MyriadPro-Regular'" font-size="18.937">&lt;&lt;interface&gt;&gt;</text>
<text transform="matrix(1 0 0 1 566.8135 291.3787)" font-family="'MyriadPro-Regular'" font-size="18.937">SimpleTransactionGraph</text>
<text transform="matrix(1 0 0 1 17.2565 291.1154)" font-family="'MyriadPro-Regular'" font-size="18.937">SimpleGraph</text>
<text transform="matrix(1 0 0 1 25.9235 388.9571)" font-family="'MyriadPro-Regular'" font-size="18.937">RedisGraph</text>
<text transform="matrix(1 0 0 1 316.3156 177.8885)" font-family="'MyriadPro-Regular'" font-size="18.937">Node</text>
<text transform="matrix(1 0 0 1 280.4962 193.6693)" font-family="'MyriadPro-Regular'" font-size="18.937">&lt;&lt;interface&gt;&gt;</text>
<text transform="matrix(1 0 0 1 125.1582 177.8885)" font-family="'MyriadPro-Regular'" font-size="18.937">Edge</text>
<text transform="matrix(1 0 0 1 87.8616 193.6693)" font-family="'MyriadPro-Regular'" font-size="18.937">&lt;&lt;interface&gt;&gt;</text>
<rect x="273.2" y="151.8" fill="none" stroke="#000000" stroke-miterlimit="10" width="127.8" height="58.4"/>
<rect x="82.7" y="151.8" fill="none" stroke="#000000" stroke-miterlimit="10" width="127.8" height="58.4"/>
<rect x="178.6" y="304.8" fill="none" stroke="#000000" stroke-miterlimit="10" width="127.8" height="58.4"/>
<rect x="17.4" y="364.1" fill="none" stroke="#000000" stroke-miterlimit="10" width="108.2" height="39.4"/>
<text transform="matrix(1 0 0 1 316.6846 477.6193)" font-family="'MyriadPro-Regular'" font-size="18.937">Redis</text>
<rect x="273.9" y="452.6" fill="none" stroke="#000000" stroke-miterlimit="10" width="127.8" height="39.4"/>
<rect x="358.7" y="304.8" fill="none" stroke="#000000" stroke-miterlimit="10" width="149.9" height="58.4"/>
<rect x="13.2" y="266.2" fill="none" stroke="#000000" stroke-miterlimit="10" width="111.3" height="39.4"/>
<rect x="561" y="266.2" fill="none" stroke="#000000" stroke-miterlimit="10" width="206.7" height="39.4"/>
<text transform="matrix(1 0 0 1 573.9777 389.2199)" font-family="'MyriadPro-Regular'" font-size="18.937">RedisTransactionGraph</text>
<rect x="562.2" y="364.1" fill="none" stroke="#000000" stroke-miterlimit="10" width="206.7" height="39.4"/>
<g>
	<g>
		<polyline fill="none" stroke="#000000" stroke-miterlimit="10" stroke-dasharray="2,2" points="125.6,383.8 150.7,383.8 
			150.7,334.8 170.3,334.8 		"/>
	</g>
</g>
<g>
	<g>
		<polyline fill="none" stroke="#000000" stroke-miterlimit="10" stroke-dasharray="2,2" points="124.5,285.9 150.7,285.9 
			150.7,334.8 170.3,334.8 		"/>
	</g>
</g>
<polyline fill="none" stroke="#000000" stroke-miterlimit="10" points="146.6,210.2 146.6,250.4 241.8,250.4 241.8,304.8 "/>
<polyline fill="none" stroke="#000000" stroke-miterlimit="10" points="241.8,304.8 241.8,250.4 337.1,250.4 337.1,210.2 "/>
<g>
	<line fill="none" stroke="#000000" stroke-miterlimit="10" x1="678.3" y1="205.8" x2="755.6" y2="205.8"/>
	<text transform="matrix(1 0 0 1 678.3438 218.5725)" font-family="'MyriadPro-Regular'" font-size="11.5101">association</text>
</g>
<g>
	<g>
		<line fill="none" stroke="#000000" stroke-miterlimit="10" stroke-dasharray="2,2" x1="679.9" y1="128.9" x2="756.5" y2="128.9"/>
		<g>
			<polygon points="751.9,135.3 750.8,134.2 756.5,128.9 750.8,123.6 751.9,122.4 758.8,128.9 			"/>
		</g>
	</g>
	<text transform="matrix(1 0 0 1 678.3068 146.3694)" font-family="'MyriadPro-Regular'" font-size="11.5101">dependency</text>
</g>
<g>
	<text transform="matrix(1 0 0 1 678.3068 183.968)" font-family="'MyriadPro-Regular'" font-size="11.5101">realization</text>
	<g>
		<g>
			<g>
				
					<line fill="none" stroke="#000000" stroke-miterlimit="10" stroke-dasharray="2,2" x1="678.6" y1="168.8" x2="749.9" y2="168.8"/>
			</g>
		</g>
		<polygon fill="none" stroke="#000000" stroke-miterlimit="10" points="757.3,168.5 753.7,171.4 750.2,174.3 750.2,168.5 
			750.2,162.6 753.7,165.6 		"/>
	</g>
</g>
<polygon fill="none" stroke="#000000" stroke-miterlimit="10" points="177.1,334.6 173.7,337.5 170.3,340.4 170.3,334.6 
	170.3,328.7 173.7,331.7 "/>
<g>
	<g>
		<polyline fill="none" stroke="#000000" stroke-miterlimit="10" stroke-dasharray="2,2" points="560.2,285.9 535,285.9 535,334.8 
			515.4,334.8 		"/>
	</g>
</g>
<g>
	<g>
		<polyline fill="none" stroke="#000000" stroke-miterlimit="10" stroke-dasharray="2,2" points="561.3,383.8 535,383.8 535,334.8 
			515.4,334.8 		"/>
	</g>
</g>
<g>
	<g>
		<polyline fill="none" stroke="#000000" stroke-miterlimit="10" stroke-dasharray="2,2" points="71.5,405.7 71.5,430.9 
			337.8,430.9 337.8,450.5 		"/>
	</g>
</g>
<g>
	<g>
		<polyline fill="none" stroke="#000000" stroke-miterlimit="10" stroke-dasharray="2,2" points="665.5,404.6 665.5,430.9 
			337.8,430.9 337.8,450.5 		"/>
	</g>
</g>
<polygon fill="none" stroke="#000000" stroke-miterlimit="10" points="508.6,335.1 512.1,332.2 515.6,329.2 515.6,335.1 
	515.6,340.9 512.1,338 "/>
<g>
	<polygon points="331.4,445.4 332.5,444.3 337.8,450 343.1,444.3 344.3,445.4 337.8,452.3 	"/>
</g>
<line fill="none" stroke="#000000" stroke-miterlimit="10" stroke-dasharray="2,2" x1="306.4" y1="334.6" x2="350.7" y2="334.6"/>
<polygon fill="none" stroke="#000000" stroke-miterlimit="10" points="357.7,334.8 354.2,337.8 350.7,340.7 350.7,334.8 350.7,329 
	354.2,331.9 "/>
</svg>
